<svg id="Logo_-_GH_Regular_v3.0_" data-name="Logo - GH Regular (v3.0)" xmlns="http://www.w3.org/2000/svg" width="165.08" height="30.866" viewBox="0 0 165.08 30.866">
  <g id="Icon" transform="translate(104.191)">
    <path id="Leaf" d="M288.36,0S273.1,0,273.1,15.356V29.714a1.128,1.128,0,0,0,1.145,1.152h14.269s15.26,0,15.26-15.356V1.152A1.128,1.128,0,0,0,302.629,0Z" transform="translate(-273.1)" fill="#42b585"/>
    <path id="Key" d="M304.941,32.63v2.111h-1.679V32.63a.247.247,0,0,0-.229-.23h-.877a.247.247,0,0,0-.229.23v2.111h-12.59a2.926,2.926,0,0,0-2.938-2.3,2.976,2.976,0,1,0,2.976,3.647h16.672a.247.247,0,0,0,.229-.23V32.63a.247.247,0,0,0-.229-.23h-.878A.221.221,0,0,0,304.941,32.63Zm-18.5,4.568a1.8,1.8,0,1,1,1.793-1.8A1.8,1.8,0,0,1,286.438,37.2Z" transform="translate(-279.532 -19.962)" fill="#fff"/>
  </g>
  <g id="Wordmark" transform="translate(0 9.982)">
    <path id="E" d="M421.691,37.3V35.69h-5.112V32.466h3.09V30.853h-3.09V28.012h5.112V26.4H414.9V37.3Z" transform="translate(-256.611 -26.246)" fill="#212020"/>
    <path id="S" d="M379.091,34.5c0-1.8-1.488-2.687-3.2-3.609-1.068-.537-1.717-.845-1.717-1.728a1.294,1.294,0,0,1,1.45-1.19,1.444,1.444,0,0,1,1.45,1.42v.192h1.64v-.192a3.062,3.062,0,0,0-3.09-2.994,2.847,2.847,0,0,0-3.09,2.687c0,1.689,1.068,2.38,2.861,3.34,1.3.653,2.06,1.113,2.06,2.035,0,.768-.649,1.267-1.679,1.267a1.7,1.7,0,0,1-1.831-1.651v-.192H372.3v.192a3.3,3.3,0,0,0,3.434,3.186C377.717,37.3,379.091,36.151,379.091,34.5Z" transform="translate(-230.263 -26.246)" fill="#212020"/>
    <path id="H" d="M234.726,37.2V26.3h-1.641v4.607H228.2V26.3h-1.6V37.2h1.6V32.519h4.883V37.2Z" transform="translate(-140.149 -26.185)" fill="#212020"/>
    <path id="N" d="M188.526,36.9V26h-1.6v5.451l-5-5.451H180.4V36.9h1.526V28.342l4.96,5.567V36.9Z" transform="translate(-111.575 -26)" fill="#212020"/>
    <path id="E-2" data-name="E" d="M144.553,37.3V35.69h-5.074V32.466h3.09V30.853h-3.09V28.012h5.074V26.4H137.8V37.3Z" transform="translate(-85.228 -26.246)" fill="#212020"/>
    <path id="E-3" data-name="E" d="M101.953,37.3V35.69H96.84V32.466h3.128V30.853H96.84V28.012h5.112V26.4H95.2V37.3Z" transform="translate(-58.88 -26.246)" fill="#212020"/>
    <path id="R" d="M57.126,35.629H55.562c-.191,0-.382-.192-.534-.537l-.725-1.42a3.573,3.573,0,0,0,2.213-3.57,3.529,3.529,0,0,0-3.472-3.8H49V37.2h1.526v-3.34h1.908c.229,0,.42.23.534.537l.649,1.42a2.129,2.129,0,0,0,1.946,1.344h1.564ZM53.044,32.4H50.6v-4.53h2.442a2.1,2.1,0,0,1,1.908,2.265A2.133,2.133,0,0,1,53.044,32.4Z" transform="translate(-30.306 -26.185)" fill="#212020"/>
    <path id="G" d="M7.478,31.79v3.494a5.849,5.849,0,0,1-1.908.307,3.586,3.586,0,0,1-3.815-3.8,3.67,3.67,0,0,1,4.006-3.762,5.977,5.977,0,0,1,2.213.422l.572-1.612A6.616,6.616,0,0,0,5.8,26.3,5.554,5.554,0,0,0,0,31.79,5.322,5.322,0,0,0,5.494,37.2a6.9,6.9,0,0,0,3.7-.921h0V31.79Z" transform="translate(0 -26.185)" fill="#212020"/>
  </g>
</svg>
