<svg id="Layer_1" data-name="Layer 1" xmlns="http://www.w3.org/2000/svg" viewBox="0 0 732.69 206.56"><defs><style>.cls-1{fill:#606161;}</style></defs><path class="cls-1" d="M91.22,127.88a35.82,35.82,0,0,1,0-71.63h20.41V40H91.22a52,52,0,0,0,0,104.08h20.41V127.84ZM143.58,40h-20.4V56.28h20.4a35.82,35.82,0,0,1,1.36,71.62H123.2v49.48l19.21-33.31h1.29A52,52,0,1,0,145.89,40Z"/><path class="cls-1" d="M264,126.27a17.09,17.09,0,0,1-7,5,26.65,26.65,0,0,1-10.89,2.2,29.93,29.93,0,0,1-15.85-4A26.88,26.88,0,0,1,220,118.31a36.1,36.1,0,0,1,0-31.18A26.94,26.94,0,0,1,230.26,76a29.92,29.92,0,0,1,15.82-4.19,26.14,26.14,0,0,1,10.79,2.08A18.18,18.18,0,0,1,264,79.23V51H279.9v81.2H264Zm-3.71-35.72a17.36,17.36,0,0,0-23.68,0,17,17,0,0,0-4.35,12.08,16.62,16.62,0,0,0,4.46,11.92,15.35,15.35,0,0,0,11.76,4.73q7.51,0,11.87-4.45t4.35-12.19A16.92,16.92,0,0,0,260.33,90.55Zm40,38.88a31.34,31.34,0,0,1-11.67-11.22,29.82,29.82,0,0,1,0-30.82,31.26,31.26,0,0,1,11.67-11.22,33.35,33.35,0,0,1,32.16,0,31.53,31.53,0,0,1,11.77,11.22,29.47,29.47,0,0,1,0,30.82,31.61,31.61,0,0,1-11.77,11.22A33.35,33.35,0,0,1,300.34,129.43Zm7.94-41.13a15.74,15.74,0,0,0-5.89,6,16.87,16.87,0,0,0-2.16,8.44,17.7,17.7,0,0,0,2.1,8.64,15.44,15.44,0,0,0,5.8,6,16.22,16.22,0,0,0,22.34-6.11,17.53,17.53,0,0,0,2.15-8.59,16.94,16.94,0,0,0-2.15-8.44,16,16,0,0,0-5.86-6,16.31,16.31,0,0,0-16.38,0Zm59.87,41.23a31.45,31.45,0,0,1-11.77-11.22,29.65,29.65,0,0,1,0-30.87,32.74,32.74,0,0,1,56.76,1.88L398.63,95a17.84,17.84,0,0,0-6.34-6.6,15.92,15.92,0,0,0-8.16-2.21,15.35,15.35,0,0,0-11.53,4.73A16.47,16.47,0,0,0,368,102.86a16.35,16.35,0,0,0,4.63,11.93,15.56,15.56,0,0,0,11.6,4.73,16.59,16.59,0,0,0,14.92-8.59l13.64,5.36q-8.47,17.4-28.51,17.4a32.29,32.29,0,0,1-16.16-4.14ZM478.46,73.1v78.08h-15.9V126.06a17.85,17.85,0,0,1-7.14,5.31,26,26,0,0,1-10.8,2.1,29.86,29.86,0,0,1-15.82-4,27,27,0,0,1-10.26-11.12,36.1,36.1,0,0,1,0-31.18A26.93,26.93,0,0,1,428.8,75.9a29.81,29.81,0,0,1,15.83-4.08A26.79,26.79,0,0,1,455.55,74a17.06,17.06,0,0,1,7,5V73.1ZM458.85,90.46C456,87.48,452,86,447,86a15.4,15.4,0,0,0-11.71,4.73,16.63,16.63,0,0,0-4.46,11.9,17,17,0,0,0,4.35,12.09,17.34,17.34,0,0,0,23.68,0,16.83,16.83,0,0,0,4.41-12.09q-.06-7.71-4.41-12.18Zm26.44,17.76V73.32h16.19v34.9q0,6.34,3.17,9.07A12.32,12.32,0,0,0,513,120a11.2,11.2,0,0,0,8-3.49q3.56-3.49,3.24-12V73.32h16.11v58.86H524.3v-5.06a19.68,19.68,0,0,1-7,4.67,23.19,23.19,0,0,1-8.75,1.67q-23.19,0-23.2-25.24Zm76.19-43.87a8.54,8.54,0,0,1-6.23,2.53,8.88,8.88,0,0,1-6.39-2.53,8.25,8.25,0,0,1-2.59-6.18,8.12,8.12,0,0,1,2.59-6.06,8.88,8.88,0,0,1,6.39-2.53,8.54,8.54,0,0,1,6.23,2.53,8.17,8.17,0,0,1,2.6,6.06A8.39,8.39,0,0,1,561.48,64.35Zm-14.25,8.86H563.3v59H547.18Zm45.83,37.91a13.87,13.87,0,0,0,1.3,6.28c.87,1.69,2.85,2.6,6,2.6a39.83,39.83,0,0,0,4.08-.22v13.47a64.3,64.3,0,0,1-7.21.44,43.67,43.67,0,0,1-11.1-1.14,11.5,11.5,0,0,1-6.61-4.34c-1.58-2.15-2.37-5.18-2.37-9.24V86.19h-7.13v-14h7.19V56.34h15.9V72.15H605V86.21H593.14Zm29.5,42.06,10.2-24.26-25.35-56.7H626l14.93,37.58,13.74-37.58h18.57l-32.94,81Z"/><path class="cls-1" d="M564.22,58.26a9.07,9.07,0,1,0-9.07,9.07A9.07,9.07,0,0,0,564.22,58.26Z"/></svg>