<svg id="Layer_1" data-name="Layer 1" xmlns="http://www.w3.org/2000/svg" xmlns:xlink="http://www.w3.org/1999/xlink" viewBox="0 0 590.27 373.43"><defs><style>.cls-1{fill:#fff;}.cls-1,.cls-3{fill-rule:evenodd;}.cls-2{mask:url(#mask);}.cls-3{fill:#606161;}</style><mask id="mask" x="60.61" y="60.62" width="232.43" height="252.2" maskUnits="userSpaceOnUse"><g id="prefix_b" data-name="prefix  b"><path id="prefix_a" data-name="prefix  a" class="cls-1" d="M60.61,60.62H293v252.2H60.61Z"/></g></mask></defs><g class="cls-2"><path class="cls-3" d="M209.51,244.61a76.41,76.41,0,0,1-28.68,13,154.82,154.82,0,0,1-35.8,3.92H116.18V111.91H149a123,123,0,0,1,33.31,4.46,82,82,0,0,1,27.6,13.36,64.41,64.41,0,0,1,18.7,22.61q7,13.74,6.95,32.24,0,21.38-6.95,36.16A62.36,62.36,0,0,1,209.51,244.61ZM293,179.08q-1.27-29.18-11.74-50.43a107.73,107.73,0,0,0-32.24-39.36q-20.31-15.14-47.55-21.9A238.22,238.22,0,0,0,144,60.62H60.61v252.2h90.82a175.89,175.89,0,0,0,53.81-8.19,138.47,138.47,0,0,0,43.23-22.5l44.56-103Z"/></g><path class="cls-3" d="M440.2,201.29H412.7v27.5H383.56v-27.5H356.07V172.14h27.49V144.65h29.15v27.49H440.2v29.15ZM420.74,60.61H374.81l-109,252.21h61.26l21-53.44h98l21.73,53.44h62.68L420.75,60.61Z"/></svg>