<svg id="Layer_1" data-name="Layer 1" xmlns="http://www.w3.org/2000/svg" viewBox="0 0 566.88 488"><defs><style>.cls-1{fill:#595b5c;}</style></defs><path class="cls-1" d="M75.34,89.27c-20.88,19.81-20.82,53.77.13,75.84s98,29.48,99,28.57S172,115.43,151.07,93.36,96.21,69.46,75.34,89.27Z"/><path class="cls-1" d="M299.79,129.36c12.07-24,3.48-52.65-19.19-64.07S229.77,64,217.7,88s4.75,90.13,5.79,90.65S287.71,153.33,299.79,129.36Z"/><path class="cls-1" d="M93.22,234.29C74.12,242.58,65,263.94,72.83,282s29.68,26,48.78,17.7,41.93-56.08,41.57-56.91S112.32,226,93.22,234.29Z"/><path class="cls-1" d="M227.69,424.44a4.06,4.06,0,0,0,.66-2.3v-204a4.06,4.06,0,0,0-.66-2.3,4.46,4.46,0,0,0-2.3-1.56,24.68,24.68,0,0,0-4.35-1,46,46,0,0,0-6.82-.41,43.26,43.26,0,0,0-6.49.41,27.46,27.46,0,0,0-4.43,1,5,5,0,0,0-2.46,1.56,3.7,3.7,0,0,0-.74,2.3v204a4.05,4.05,0,0,0,.65,2.3,4.5,4.5,0,0,0,2.3,1.56,25.1,25.1,0,0,0,4.44,1A56.18,56.18,0,0,0,221,427a24.68,24.68,0,0,0,4.35-1A4.46,4.46,0,0,0,227.69,424.44Z"/><path class="cls-1" d="M309.49,426a4.5,4.5,0,0,0,2.3-1.56,4.14,4.14,0,0,0,.66-2.3v-204a4.14,4.14,0,0,0-.66-2.3,4.5,4.5,0,0,0-2.3-1.56,25.12,25.12,0,0,0-4.35-1,46.1,46.1,0,0,0-6.82-.41,43.26,43.26,0,0,0-6.49.41,27.21,27.21,0,0,0-4.43,1,5,5,0,0,0-2.47,1.56,3.76,3.76,0,0,0-.74,2.3v204a4.06,4.06,0,0,0,.66,2.3,4.46,4.46,0,0,0,2.3,1.56,24.76,24.76,0,0,0,4.43,1,56.26,56.26,0,0,0,13.56,0A25.12,25.12,0,0,0,309.49,426Z"/><path class="cls-1" d="M491.32,427.39a78.16,78.16,0,0,0,8.95-.41,9.42,9.42,0,0,0,4.85-1.64,3.28,3.28,0,0,0,1.07-3.37,20.16,20.16,0,0,0-2.55-5.75l-57.49-98.39L501.34,224a19.19,19.19,0,0,0,2.3-5.84,3.39,3.39,0,0,0-1.07-3.36,9.08,9.08,0,0,0-4.6-1.56,66.38,66.38,0,0,0-8.29-.41q-4.77,0-7.56.24a18,18,0,0,0-4.35.82,5.12,5.12,0,0,0-2.38,1.65,26.59,26.59,0,0,0-1.64,2.38l-45.34,79.5L382.74,218c-.65-.88-1.26-1.67-1.8-2.38a5.22,5.22,0,0,0-2.63-1.65,23.5,23.5,0,0,0-4.93-.82q-3.12-.24-8.05-.24-5.74,0-9,.32t-4.6,1.56a3.26,3.26,0,0,0-.74,3.45A27.56,27.56,0,0,0,353.5,224l55.36,94.45-58,97.73a19.6,19.6,0,0,0-2.55,5.75,3.54,3.54,0,0,0,.82,3.37A7.51,7.51,0,0,0,353.5,427a69.91,69.91,0,0,0,8.55.41q4.92,0,7.88-.24a21.35,21.35,0,0,0,4.68-.82,6.88,6.88,0,0,0,2.71-1.57,10.74,10.74,0,0,0,1.81-2.46l47.8-84.59,47.31,84.59a7.45,7.45,0,0,0,1.56,2.38,7.18,7.18,0,0,0,2.63,1.56,17.8,17.8,0,0,0,4.68.91Q486.06,427.39,491.32,427.39Z"/></svg>