<svg id="Layer_1" data-name="Layer 1" xmlns="http://www.w3.org/2000/svg" viewBox="0 0 488.02 492.15"><defs><style>.cls-1{fill:#606161;}</style></defs><path class="cls-1" d="M194.19,165.88a47.39,47.39,0,1,1,47.4,47.21,47.3,47.3,0,0,1-47.4-47.21"/><path class="cls-1" d="M241.58,40c-69.79,0-126.35,56.35-126.35,125.87,0,52.18,31.63,96.73,77.56,116.11a23.66,23.66,0,0,0,31-12.65,23.52,23.52,0,0,0-12.7-30.88h0a79,79,0,1,1,61,0v0a23.58,23.58,0,0,0,9.12,45.36,24.34,24.34,0,0,0,9.15-1.84c45.93-19.38,77.57-63.94,77.57-116.11C367.93,96.35,311.36,40,241.58,40"/><path class="cls-1" d="M203.48,381.36c0-11.5-7.91-20.05-20.26-20.05S163,369.86,163,381.36s7.92,20.06,20.27,20.06,20.26-8.56,20.26-20.06m-60.39,0c0-21.12,16.77-37.43,40.13-37.43s40.13,16.31,40.13,37.43-16.64,37.44-40.13,37.44-40.13-16.31-40.13-37.44m73.44,52.74h10.74c5.77,0,7.78-2.14,7.78-7.22V344h19.86v83.19c0,17.52-7.11,25-26,25H216.53V434.09ZM111.25,385.23C111.25,394,102.33,401,91,401c-12.82,0-20.8-7.54-20.8-20.05,0-11.57,8.51-19.51,21.61-19.51,10.41,0,19.46,7.26,19.46,15.47Zm.81-41.33v8.36h-.28c-5.13-5.38-13.63-8.34-23.76-8.34-21.75,0-37.83,16.15-37.83,37,0,21.67,16.48,37.55,38.5,37.55,9.86,0,18.1-3.1,23.1-8.62h.27v7.21c0,9.69-8.38,16.82-19.45,16.82s-17.67-3.14-23.32-8.51l-12.93,12.4C65,446.93,78.09,452.14,93,452.14c22.7,0,38.23-15.17,38.23-35.35V343.9ZM305.67,360c10.6,0,18,5.48,18.93,13.77H286.48c1.07-8.29,8.46-13.77,19.19-13.77m2.05,42.78c-11.9,0-21.26-7.66-21.51-15.1h57.71V382c0-21.26-14.76-38.1-38.65-38.1-22.55,0-38.65,15.78-38.65,37.57,0,22.46,17,37.3,42,37.3,15.3,0,26.27-7.31,32-14.31l-13.46-9.4c-6,5.57-11.42,7.66-19.38,7.66m47.9-78.1H374.8l.1,49.09h.26l32.11-30H433L399.7,375.12l33.13,43.62H409.89l-22.76-31.52h-.26L374.8,398.61v20.18H355.63Z"/></svg>