<svg id="Layer_1" data-name="Layer 1" xmlns="http://www.w3.org/2000/svg" viewBox="0 0 734.52 284.35"><defs><style>.cls-1{fill:#606161;}</style></defs><polygon class="cls-1" points="95.67 192.56 127.4 223.75 159.15 192.53 127.43 161.34 95.67 192.56"/><polygon class="cls-1" points="130.77 158.06 162.5 189.25 194.25 158.03 162.52 126.85 130.77 158.06"/><polygon class="cls-1" points="56.56 129.55 65.33 138.15 126.75 77.82 188.19 138.15 196.95 129.55 126.75 60.61 56.56 129.55"/><polygon class="cls-1" points="159.18 123.56 127.46 92.38 95.7 123.59 127.43 154.78 159.18 123.56"/><polygon class="cls-1" points="92.36 126.88 60.61 158.09 92.33 189.28 124.09 158.06 92.36 126.88"/><path class="cls-1" d="M306.85,156.13a41.78,41.78,0,0,0-8.19-4.66q-4.62-2-9.4-3.73l-9.39-3.36a59.27,59.27,0,0,1-8.2-3.56,22.37,22.37,0,0,1-5.81-4.32,8,8,0,0,1-2.22-5.66,10.57,10.57,0,0,1,1.11-4.7,11.49,11.49,0,0,1,3.29-4,16.59,16.59,0,0,1,5.38-2.73,24.73,24.73,0,0,1,7.39-1,28.14,28.14,0,0,1,6.79.8,18.74,18.74,0,0,1,5.72,2.43,13.42,13.42,0,0,1,4.1,4.15,14.29,14.29,0,0,1,2,5.88h13a23.75,23.75,0,0,0-2.78-10.53,23,23,0,0,0-6.75-7.63A30.42,30.42,0,0,0,293,108.9a46.08,46.08,0,0,0-12.21-1.55,40.38,40.38,0,0,0-11.19,1.55,30.94,30.94,0,0,0-9.52,4.53,23.06,23.06,0,0,0-6.62,7.3,19.63,19.63,0,0,0-2.48,9.94,17.58,17.58,0,0,0,2.22,9.06,23,23,0,0,0,5.81,6.54,37.54,37.54,0,0,0,8.2,4.74c3.07,1.31,6.21,2.52,9.39,3.61l9.4,3.22a60.51,60.51,0,0,1,8.2,3.49,19.92,19.92,0,0,1,5.8,4.4,8.93,8.93,0,0,1,2.22,6.12,10.21,10.21,0,0,1-2.05,6.54A14.23,14.23,0,0,1,295,182.5a25.61,25.61,0,0,1-7,2.14,44.06,44.06,0,0,1-7.21.63,31.3,31.3,0,0,1-7.82-.92,17.32,17.32,0,0,1-6.19-2.94,14,14,0,0,1-4.18-5.2A18.22,18.22,0,0,1,261,168.5H247.93a28.06,28.06,0,0,0,2.95,12.12,25.72,25.72,0,0,0,7.13,8.59,30.47,30.47,0,0,0,10.33,5.16,44.15,44.15,0,0,0,12.47,1.72,57.54,57.54,0,0,0,12.94-1.42,33.78,33.78,0,0,0,10.88-4.49,22,22,0,0,0,10.25-19.59,15.25,15.25,0,0,0-2.22-8.3A22.45,22.45,0,0,0,306.85,156.13Z"/><polygon class="cls-1" points="404.35 109.03 388.89 109.03 348.41 147.78 348.41 76.82 335.77 76.82 335.77 194.41 348.41 194.41 348.41 164.22 364.04 148.87 390.26 194.41 405.03 194.41 373.01 139.98 404.35 109.03"/><path class="cls-1" d="M477.93,159.35a18.56,18.56,0,0,1-2.18,8.47,27.57,27.57,0,0,1-5.93,7.76,31.86,31.86,0,0,1-8.8,5.71,26.41,26.41,0,0,1-10.76,2.22,23.71,23.71,0,0,1-6.58-.84,11.87,11.87,0,0,1-4.91-2.73,12.15,12.15,0,0,1-3.07-4.9,22.39,22.39,0,0,1-1.07-7.38V109H422v60.22a29.61,29.61,0,0,0,1.75,10.44,21.59,21.59,0,0,0,5.08,7.93,22.5,22.5,0,0,0,8.07,5,30.51,30.51,0,0,0,10.72,1.76,41,41,0,0,0,8.07-.79,36.3,36.3,0,0,0,7.82-2.56,35.45,35.45,0,0,0,7.47-4.7,44,44,0,0,0,7-7.21v15.26h12.64V109H477.93Z"/><path class="cls-1" d="M585.84,185.19a5.22,5.22,0,0,1-4.14-2A7.87,7.87,0,0,1,580,178V133.86a24.78,24.78,0,0,0-2.66-11.79,23.79,23.79,0,0,0-7.17-8.26A31.66,31.66,0,0,0,559.75,109a48.12,48.12,0,0,0-12.6-1.6,43.24,43.24,0,0,0-12,1.68,34.79,34.79,0,0,0-10.47,4.91,27.52,27.52,0,0,0-7.6,8,22.74,22.74,0,0,0-3.33,11h13.15a14.94,14.94,0,0,1,2.31-6.2,16.79,16.79,0,0,1,4.48-4.53,20.6,20.6,0,0,1,6.15-2.81,27.21,27.21,0,0,1,7.3-1,32.08,32.08,0,0,1,8.29,1,18.56,18.56,0,0,1,6.4,3,13.52,13.52,0,0,1,4.1,4.86,14.48,14.48,0,0,1,1.45,6.59,6.82,6.82,0,0,1-2.39,5.32,21.45,21.45,0,0,1-6.36,3.74,78.37,78.37,0,0,1-9,2.93q-5,1.35-10.29,2.81T529.09,152a40.5,40.5,0,0,0-9,4.65,22.87,22.87,0,0,0-6.37,6.58,17,17,0,0,0-2.39,9.19,23.43,23.43,0,0,0,2,9.73,22,22,0,0,0,5.42,7.46,24.29,24.29,0,0,0,8.07,4.78,28.72,28.72,0,0,0,9.91,1.68,54,54,0,0,0,8.07-.59,31.86,31.86,0,0,0,7.94-2.3,35,35,0,0,0,7.94-4.91,51.38,51.38,0,0,0,8.07-8.39q.42,8.31,4,12.25a11.5,11.5,0,0,0,8.93,3.94,22.66,22.66,0,0,0,3.2-.29,17.85,17.85,0,0,0,3.11-.72V184.85a8.94,8.94,0,0,1-1.1.25A6,6,0,0,1,585.84,185.19Zm-18.45-19q-5.71,9.72-13.28,14.42a28.78,28.78,0,0,1-15.41,4.7,19.63,19.63,0,0,1-5.38-.75,13.4,13.4,0,0,1-4.7-2.39,12.61,12.61,0,0,1-3.33-4.16,13.38,13.38,0,0,1-1.28-6.12,9.38,9.38,0,0,1,2.48-6.67,20.65,20.65,0,0,1,6.44-4.48,56.64,56.64,0,0,1,8.84-3.19q4.88-1.35,9.7-2.77a88.58,88.58,0,0,0,9-3.19,19.78,19.78,0,0,0,6.87-4.53Z"/><path class="cls-1" d="M660.79,76.82v44.29q-5.82-7.64-12-10.7a27.37,27.37,0,0,0-12.3-3.06,32.1,32.1,0,0,0-15.32,3.53,32.44,32.44,0,0,0-11.07,9.56,42.59,42.59,0,0,0-6.65,14.09,63.72,63.72,0,0,0-2.23,17.11,62.22,62.22,0,0,0,2.31,17.15A43.5,43.5,0,0,0,610.4,183a33.11,33.11,0,0,0,11.15,9.61,32.1,32.1,0,0,0,15.32,3.52,26.13,26.13,0,0,0,13.07-3.65,30.72,30.72,0,0,0,10.85-10.78v12.75h12.64V76.82Zm0,75.74a49.28,49.28,0,0,1-1.58,12.71,33.85,33.85,0,0,1-4.57,10.31,22.13,22.13,0,0,1-7.35,6.92,19.39,19.39,0,0,1-9.9,2.52,18.8,18.8,0,0,1-9.95-2.68,23.25,23.25,0,0,1-7.39-7.26,36,36,0,0,1-4.57-10.61,52.92,52.92,0,0,1,0-25.67,35.48,35.48,0,0,1,4.57-10.56,23,23,0,0,1,7.39-7.17,18.87,18.87,0,0,1,9.95-2.65,18.66,18.66,0,0,1,9.74,2.56,23.49,23.49,0,0,1,7.25,6.88A33.53,33.53,0,0,1,659,138a50.66,50.66,0,0,1,1.8,12.33Z"/></svg>