<svg id="Layer_1" data-name="Layer 1" xmlns="http://www.w3.org/2000/svg" viewBox="0 0 703.46 205.93"><defs><style>.cls-1{fill:#606161;}</style></defs><g id="Landingpage"><g id="Homepage-Copy"><path class="cls-1" d="M565.48,102.4c0-16.68,0-33.36,0-50,0-8.14,4-12.19,12.22-12.24,15.67-.09,31.34-.23,47,.06,20.33.37,38.11,18.62,38.71,38.74.52,17.41-6.39,30.43-21.71,38.91-3,1.64-2.84,3.07-.81,5.43,6.48,7.52,12.8,15.18,19.16,22.8,3.79,4.53,4.43,10.8,1.58,14.89-3,4.38-8.39,5.93-13.95,4.07a8.46,8.46,0,0,1-4-2.49c-12.2-14.65-24.53-29.19-36.51-44A11,11,0,0,1,611,101.34c2.27-1,4.65-.75,7-.84,7.7-.33,14.74-2,19.37-9,8.12-12.2-.12-28-15.3-28.7-9.79-.45-19.62,0-29.43-.14-4.56-.06-4.48,2.85-4.48,6q0,42,0,84c0,4.48-.83,8.54-4.93,11.07-3.89,2.4-8.15,2.82-12.22.67s-5.67-5.59-5.65-10.14C565.54,137,565.48,119.71,565.48,102.4Z"/><path class="cls-1" d="M218.6,165.67c-30.48,1.75-59.39-20.92-64.06-52.69C149.34,77.69,172.12,47,206,41.21,241.63,35.08,273.49,57.7,279.77,93a61.31,61.31,0,0,1-2.93,31.65c-2.7,7.53-8.95,11.23-15.29,9-6.82-2.35-9.38-8.9-6.53-16.73A40.15,40.15,0,0,0,234.49,66.8c-17.39-8.19-38.33-3-49.26,12.15C173,96,174,117.14,188.39,131.22c11,10.7,24.27,14.33,39.36,10.52,1.68-.43,3.31-1.08,5-1.58,6.85-2.06,13.11.74,15.12,6.75,2.13,6.37-1,12.36-7.83,15C232.84,164.6,225.53,166.5,218.6,165.67Z"/><path class="cls-1" d="M79.91,165.71c-7.6,0-15.2.07-22.8,0-7.24-.09-11.34-4.14-11.42-11-.08-7.05,4.11-11.45,11.48-11.53,13.77-.14,27.54,0,41.32-.07,7,0,12.51-3.81,14.66-9.91,2-5.75.1-11.31-5.38-15.85-2.74-2.28-6-2.62-9.35-2.72-9.32-.29-18.66.71-28-.85C51.88,110.63,38.75,93.57,40.1,74.06,41.36,55.78,57,40.54,75.36,40.19c14.72-.28,29.45-.13,44.17,0,7.31,0,12.31,4.95,12.25,11.62-.05,6.11-5.4,10.87-12.43,10.9q-19,.08-38,0a30.05,30.05,0,0,0-8.45,1c-6.67,1.9-10.18,6.58-10.19,13.59A14.13,14.13,0,0,0,72.91,91a32,32,0,0,0,9.4,1c6,0,12,.25,18-.05,18.89-.94,36.74,16.7,36.53,36.9-.22,20.54-16,36.69-36.56,36.84C93.52,165.75,86.71,165.71,79.91,165.71Z"/><path class="cls-1" d="M363.16,165.71c-31.35,1.52-59.72-24.62-63.09-56-3.92-36.55,25.7-69.93,63-69.61,17.16.15,31.86,5.81,44.05,17.81,5.5,5.42,6,12,1.5,16.68-5.08,5.3-11,5.25-17.11-.15-16.11-14.28-36.54-15.62-52.91-3-13.14,10.1-18,23.84-14.76,39.77,3.39,16.43,13.9,27,30.42,30.82,14,3.27,26.29-.46,36.8-10.12,5.69-5.23,13-5.45,17.69-.46s3.8,12.61-2,17.64C394.29,159.83,380.12,166.42,363.16,165.71Z"/><path class="cls-1" d="M544.58,154c0,5.86-3.07,10.26-7.77,11.43A11.73,11.73,0,0,1,523,158.9c-7.74-16.37-15.32-32.81-22.94-49.23-4.11-8.86-8.16-17.74-12.26-26.59-.45-1-.74-2.28-2-2.35S484.05,82,483.61,83q-15.66,33.6-31.28,67.22c-1.27,2.72-2.48,5.46-3.86,8.11-3.52,6.8-9.71,9.33-15.67,6.5-6.13-2.91-8.09-9.4-4.84-16.5q7.74-17,15.62-33.88,14.84-31.9,29.74-63.78c1.26-2.69,2.22-5.61,4.52-7.69a11.59,11.59,0,0,1,18.29,4c8.92,18.77,17.62,37.64,26.38,56.49,6.64,14.27,13.22,28.57,19.88,42.84C543.6,148.83,544.82,151.37,544.58,154Z"/></g></g></svg>