<svg id="Layer_1" data-name="Layer 1" xmlns="http://www.w3.org/2000/svg" viewBox="0 0 766.36 234.77"><defs><style>.cls-1{fill:#606161;}</style></defs><g id="qvGmD9.tif"><path class="cls-1" d="M500.06,174.17c-3.58-.55-7.21-.61-10.76-1.45-16.48-3.9-29.38-12.88-37.35-27.8-11.74-22-9.84-43.36,5.31-63.11,9.28-12.1,22.08-18.78,37.25-20.73a54.69,54.69,0,0,1,26.42,3c1,.35,1.88.74,2.76,1.15-26.38-5.87-47.45,1.47-61.06,25.4C452.22,109,455.48,131.7,468.45,147c11.47,13.5,26.23,19.37,43.92,18.14-6-5.92-11.59-11.94-11.81-21.05,4.37,5.25,8.64,10.56,15.4,13-7-6.67-12.33-14.08-11.8-24.37,1.83,2.44,2.92,5.43,6,7.45a24.23,24.23,0,0,1,2.29-12.24c-1.21-.14-1.88.59-2.69.83-.52.16-1.08.87-1.56.3s.17-1.07.39-1.59a10.94,10.94,0,0,1,5.48-5.29,23.17,23.17,0,0,1,12-2c1.56.09,1.64.91,1.48,2.23a11.6,11.6,0,0,0,10.85,12.89c2.53.18,4.49-.89,6.4-2.39-.88,3.63-3.22,6.11-6.13,8.11a27.45,27.45,0,0,1-9,3.65c-1.43.37-1.68.66-.64,1.91,4.24,5.16,5.49,10.89,2.94,17.23a16.92,16.92,0,0,1-.83,1.48c-1.4-5.42-2.53-10.54-7.07-14.13a5.18,5.18,0,0,0,.64,2.56c1,2.74,2,5.48,1.9,8.46a9,9,0,0,1-6.33,8.61,51.84,51.84,0,0,1-16,3.09,8.82,8.82,0,0,0-1.5.29Z"/><path class="cls-1" d="M726.36,122.12a41.86,41.86,0,0,1-2.73,12c-4.24,9.75-11.37,16.08-22.09,17.44-16,2-28.95-7.47-32-23.31-2-10.39-.51-20.09,6.43-28.52,12.46-15.11,36.89-12.76,46.23,4.44a31.37,31.37,0,0,1,3.93,13.68,9.78,9.78,0,0,0,.28,1.51Zm-45.89-2.61A29.44,29.44,0,0,0,682,130.17c2.3,6.25,6.32,10.74,13.28,11.62,7.12.9,12.7-1.88,16-8.19,4.79-9.06,4.5-18.29-1-26.92a15.08,15.08,0,0,0-22.84-3.34C682.31,108,680.71,114.17,680.47,119.51Z"/><path class="cls-1" d="M84.19,110.62q-3.06,8.07-6.1,16.13c-2.77,7.32-5.57,14.63-8.25,22-.61,1.66-1.47,2.41-3.27,2.22-2-.2-4.46.7-6.11-.36s-1.65-3.66-2.32-5.59q-8.36-23.92-17.6-47.51c-1-2.57-1-2.56,1.48-3.66,2.13-1,4.29-1.86,6.37-2.91,1.46-.73,2.13-.43,2.66,1.15,3.19,9.71,6.47,19.4,9.74,29.08,1.32,3.91,2.69,7.81,4.05,11.74.93-.24.87-1,1.07-1.56Q72.81,113,79.62,94.6a2.67,2.67,0,0,1,2.85-2c6.8-.09,6.8-.13,9,6.18q5.43,15.78,10.85,31.57a7.39,7.39,0,0,0,1.09,2.5,3.68,3.68,0,0,0,1-2.07q6.61-19,13.19-37.95c.83-2.39.88-2.37,3.29-1.43,2,.79,4,1.65,6,2.36,1.52.53,1.79,1.26,1.17,2.76q-7.92,19.2-14.86,38.79c-1.65,4.63-3.35,9.25-5,13.89a2.27,2.27,0,0,1-2.58,1.78,37.53,37.53,0,0,0-4.86,0c-1.58.11-2.3-.53-2.79-2-2.79-8.28-5.66-16.53-8.53-24.78-1.57-4.52-3.2-9-4.81-13.52Z"/><path class="cls-1" d="M377.8,128.33c0,7.61,0,13.31,0,19,0,2.65,0,2.59-2.63,2.89a121.37,121.37,0,0,1-17.68.69c-5.87-.19-11.65-1.06-16.95-3.79-6.31-3.26-10.14-8.21-9.94-15.6.16-6,3.3-10.32,8.2-13.54,5.57-3.66,11.95-4.89,18.35-6,2.3-.4,4.63-.58,7-.85,2.06-.24,2.29-.58,1.68-2.62a9.63,9.63,0,0,0-5.51-6.18,22.2,22.2,0,0,0-8.89-1.85,81.23,81.23,0,0,0-11.67.26c-2.37.27-2.59-.08-2.29-2.4.25-1.92.39-3.86.66-5.78.12-.86.17-1.87,1.44-2,8.05-.62,16.09-1,23.91,1.53,8.48,2.79,13,8.85,14,17.57C378.3,116.53,377.57,123.4,377.8,128.33ZM366.41,131c0-3,0-6,0-8.92,0-1.25-.34-1.69-1.69-1.53a84.55,84.55,0,0,0-11.31,1.81c-3.21.81-6.34,1.84-8.82,4.24a7.46,7.46,0,0,0,.62,11.24,15,15,0,0,0,5,2.43c4.81,1.36,9.73,1.3,14.66,1.22,1.25,0,1.48-.73,1.48-1.77C366.4,136.81,366.41,133.91,366.41,131Z"/><path class="cls-1" d="M162,120.56c-6,0-12.07,0-18.1,0-1.52,0-1.86.47-1.72,1.93.74,7.84,6.82,14.79,15,17,5.85,1.6,11.82,1.34,17.78,1,.65,0,1.29-.13,1.94-.18,1.22-.09,1.63.55,1.48,1.67-.34,2.37-.69,4.73-1,7.1a1.47,1.47,0,0,1-1.49,1.46c-9.32.83-18.53.67-27.36-3a29.59,29.59,0,0,1-17.87-30.45c.81-7.86,3.69-14.65,9.31-20.18,8.91-8.78,26.9-9.5,35.28,0,4.09,4.67,6,10.2,6.7,16.25.18,1.6.32,3.22.35,4.83,0,2.31-.18,2.5-2.57,2.51Zm-5.31-9c4,0,8,0,12.06,0,.81,0,1.75.21,1.55-1.25-.62-4.58-4.65-9.41-9.18-10.32-8.45-1.68-14.32,1.62-17.68,10.15-.48,1.21.11,1.45,1.18,1.44C148.6,111.52,152.63,111.53,156.65,111.53Z"/><path class="cls-1" d="M594.9,120.56H577.57c-2.77,0-3,.28-2.42,3.07,1.9,9.26,8.82,15.43,18.63,16.66a66.74,66.74,0,0,0,14.75.1c2.69-.26,2.9,0,2.48,2.69-.26,1.66-.51,3.32-.66,5s-.73,2.45-2.6,2.59c-8.28.61-16.49.56-24.4-2.31-10.91-4-17.66-11.69-19.64-23.08-2.13-12.26,3-25.41,13.14-31.43a26.52,26.52,0,0,1,22.69-2.35c8.48,2.83,12.6,9.5,14.49,17.8a43.51,43.51,0,0,1,1,9c0,1.71-.6,2.26-2.27,2.25C606.83,120.52,600.86,120.56,594.9,120.56Zm-5.39-9h12.06c.91,0,1.69,0,1.49-1.36a13.22,13.22,0,0,0-9.24-10.27A14.53,14.53,0,0,0,576.26,110c-.4,1.28,0,1.6,1.19,1.58C581.47,111.51,585.49,111.53,589.51,111.53Z"/><path class="cls-1" d="M281.26,119.79v26.59c0,3,0,3-3.13,3-2,0-4-.09-6,0-1.73.09-2.28-.6-2.26-2.26,0-2.9,0-2.9-2.56-1.59-4.43,2.31-8.89,4.53-14,5.16-12.36,1.52-20.87-5.44-20.93-17.71,0-11.32,0-22.64,0-34,0-2.26-.16-4.52-.27-6.78-.07-1.46.54-2.12,2.06-2.08,2.53.06,5.06.07,7.59,0,1.62,0,2.16.6,2.12,2.18-.16,6.2-.16,12.41-.32,18.61-.17,6.72.17,13.45.3,20.17a10.09,10.09,0,0,0,.08,1.35c.87,6.29,3.84,8.59,10.14,7.7,5.37-.76,10.07-3.3,14.75-5.85,1-.57,1-1.55,1-2.54q0-16.49,0-33c0-2.2.05-4.4-.05-6.6-.07-1.54.57-2.07,2.06-2,2.27.07,4.54,0,6.81,0,2.59,0,2.63,0,2.64,2.58Z"/><path class="cls-1" d="M398.87,126c0,7.44,0,14.88.28,22.32.11,2.53-.06,2.6-2.61,2.61-2.33,0-4.67-.06-7,0-1.62.06-2.15-.55-2.12-2.15.16-10.42.32-20.83.34-31.25,0-7.82-.16-15.65-.35-23.48,0-1.77.51-2.45,2.32-2.36,2.33.12,4.67.09,7,0,1.57-.06,2.2.46,2.19,2.1,0,3.43,0,3.37,3.09,1.83a50.18,50.18,0,0,1,15-5.22C426.5,89,435,95.11,436.22,104.57c.82,6.11.34,12.26.19,18.4-.1,4-.29,7.91-.05,11.84.27,4.66.12,9.31.3,14,.07,1.55-.45,2.24-2.1,2.18q-3.8-.14-7.59,0c-1.69.07-2.16-.69-2.08-2.21.63-12.09.18-24.2.28-36.29a23.09,23.09,0,0,0-.79-6.14c-.88-3.32-2.79-4.84-6.24-5.12a19.53,19.53,0,0,0-8.6,1.22,95.26,95.26,0,0,0-8.84,4,3.08,3.08,0,0,0-1.86,3.23C398.92,115.14,398.87,120.57,398.87,126Z"/><path class="cls-1" d="M195.16,150.94c-2.22.19-4.85-.35-7.51-.45-1.26,0-2-.54-2-2,0-2-.17-4-.35-6-.16-1.68.45-2.41,2.2-2.2a80.69,80.69,0,0,0,12,.4,18,18,0,0,0,8.62-2c4.15-2.35,4.49-6.95.7-9.8a36.9,36.9,0,0,0-7.32-4c-3.43-1.55-6.89-3.06-9.67-5.69-7.62-7.18-6.68-18.33,2-24.17a25.53,25.53,0,0,1,12.24-4,78.5,78.5,0,0,1,13-.06c1.31.1,1.89.61,2,1.83.17,2.19.32,4.38.53,6.56.13,1.47-.53,2-1.94,1.87a81.4,81.4,0,0,0-11.26-.37,14.74,14.74,0,0,0-7.09,1.81c-3.8,2.21-4.17,5.85-.87,8.7,2.33,2,5.18,3.18,7.94,4.45a49.73,49.73,0,0,1,8,4.41c10.1,7.14,8.41,21-2.17,26.78C209.23,149.71,203.21,151,195.16,150.94Z"/><path class="cls-1" d="M480.58,129.15c2.49,4.3,4.42,8.88,7.82,12.66-3.95-8.89-6.29-18-3.76-27.78a18.12,18.12,0,0,0-5.51,7.59c-1.13,2.86-2.08,5.78-3.37,8.67a12.78,12.78,0,0,1-.92-6.15c.78-8.3,5.26-14,12.59-17.63a33.55,33.55,0,0,1,21.8-2.73,6.18,6.18,0,0,1,.73.23c.05,0,.08.09.26.31-.89.7-2,.66-3,1-1.75.67-3.91,1.13-3.91,3.46s2.16,2.59,3.82,3.27c1.16.47,3.12.11,3.33,1.36.15.94-1.76,1.45-2.74,2.16-3,2.17-5.51,4.65-6.52,8.48,5.55-4.12,11.51-7.1,18.72-7.47-.32,1.14-1.19,1.25-1.82,1.55a51.68,51.68,0,0,0-10.53,6.21c-7,5.75-9.68,13.1-8.82,22A24.73,24.73,0,0,0,505,161.05c-4.92-.05-15.06-6.34-19.26-12.3S479.58,136.42,480.58,129.15Z"/><path class="cls-1" d="M296.7,143.18c.52-8.56.48-17.94.27-27.3-.17-7.18-.18-14.35-.27-21.53,0-2.54.06-2.59,2.62-2.6,2.34,0,4.67,0,7,0,1.35,0,1.87.55,1.81,1.86s0,2.59,0,3.88c-.06,1.53.52,1.6,1.73,1a110,110,0,0,1,15.65-6.87c1-.34,2-.6,3-.94,1.31-.46,1.9.06,2.15,1.34.45,2.35.93,4.69,1.49,7,.31,1.31-.19,1.87-1.42,2.22a145.38,145.38,0,0,0-20.88,7.94,2.37,2.37,0,0,0-1.7,2.44c.05,9.83-.05,19.66.09,29.49,0,2.64.19,5.29.22,7.94,0,1.23-.37,1.95-1.78,1.92-2.72,0-5.45,0-8.17,0-1.4,0-1.81-.66-1.78-1.91C296.73,147.36,296.7,145.67,296.7,143.18Z"/><path class="cls-1" d="M512.61,97.38l6.63,5.83,0,.52c-16.35-4.69-30.94-1.18-44.1,9.32.74-6.31,11.83-15.26,23.62-19.18a23.92,23.92,0,0,0-6.9,1c-2.13.52-4.22,1.23-6.53,1.91.22-.93.92-1.19,1.44-1.54a51.07,51.07,0,0,1,23.16-8.46,47.39,47.39,0,0,1,13.56-.1c9.27,1.51,15.36,7,17.25,16.09a16,16,0,0,0,4,7.75c2.78,3.07,5.47,6.23,8.19,9.35,2.2,2.53,2.36,4.58.52,7.38-1.3,2-2.66,3.94-4,6a.67.67,0,0,1-.12-.9c1.16-3.26.59-5.2-2.07-7.34-1-.8-2.75-1.62-2.54-2.66s2.18-.44,3.3-.9c.45-.18,1.18.17,1.37-.44s-.39-.92-.73-1.29c-2.65-2.84-5.29-5.69-8-8.5a6.88,6.88,0,0,1-2.08-4.81c-.3-8.43-10.35-16.24-18.74-14.72-1.25.22-1.74.63-1,1.9a41.23,41.23,0,0,1,1.91,3.82c.29.66,1.17,1.38.56,2.07s-1.32-.11-2-.3c-2.17-.63-4.33-1.31-6.5-2Z"/><path class="cls-1" d="M648,121.36v-27c0-2.6,0-2.64,2.57-2.65,2.33,0,4.67.08,7,0,1.75-.08,2.29.66,2.19,2.3-.6,9.49-.26,19-.32,28.49-.06,7.69,0,15.38.05,23.08,0,1.15.17,2.31.25,3.47S659.34,151,658,151c-2.59,0-5.19-.09-7.78,0-1.73.07-2.22-.6-2.21-2.26C648,139.59,648,130.48,648,121.36Z"/><path class="cls-1" d="M634.92,143.6c0,1.87,0,3.74,0,5.62,0,1.08-.33,1.72-1.54,1.71-3.63,0-7.25,0-10.88,0-1,0-1.4-.48-1.4-1.44,0-3.93,0-7.87,0-11.81a1.33,1.33,0,0,1,1.53-1.54h10.69c1.12,0,1.64.52,1.61,1.67C634.89,139.72,634.92,141.66,634.92,143.6Z"/><path class="cls-1" d="M653.9,83.74c-1.55,0-3.1,0-4.66,0-1.11,0-1.67-.42-1.66-1.6q0-4.64,0-9.29c0-1.19.59-1.6,1.67-1.6h9.13c1.33,0,1.83.64,1.81,1.92q0,4.36,0,8.71c0,1.3-.48,1.92-1.83,1.87S655.39,83.74,653.9,83.74Z"/><path class="cls-1" d="M546.07,140.86a13.91,13.91,0,0,1-1.87,6.65,1.57,1.57,0,0,1-2.08.88c-2.27-.75-4.57-1.45-6.85-2.2-.39-.13-1-.17-1-.77s.52-.54.87-.66c3.71-1.29,7.19-2.95,9.87-5.95.67-.75,1-.27,1,.5C546.09,139.83,546.07,140.34,546.07,140.86Z"/><path class="cls-1" d="M527.83,105.11c1.55,1.56,3.79,2,3.17,4.69-.22,1,1,1.77,1.46,2.65.42.71,1.17,1.23,1.27,2.26-1.12.22-2-.47-2.9-.78-2-.69-4-1.48-6-2.24-.54-.2-1.16-.33-1.46-.89a3,3,0,0,1-.32-2.6c.4-.88,1.39-.44,2.11-.35C528.07,108.19,528.06,108.21,527.83,105.11Z"/></g></svg>